<svg width="50" height="58" viewBox="0 0 50 58" fill="none" xmlns="http://www.w3.org/2000/svg">
<g filter="url(#filter0_d)">
<path d="M44.7008 45.0312L38.6813 43.7064L36.8157 49.5961C36.6815 50.0196 36.108 50.0816 35.8864 49.6967L28.4397 36.7607C32.1079 35.9659 35.3716 34.0822 37.8776 31.4641L45.2531 44.2778C45.4744 44.6622 45.134 45.1266 44.7008 45.0312V45.0312Z" fill="#FD646F"/>
<path d="M44.7009 45.0311L39.137 43.8064C38.879 43.7496 38.6203 43.899 38.5405 44.1509L36.8158 49.5958C36.6816 50.0193 36.1081 50.0814 35.8865 49.6964L29.507 38.6134L28.4398 36.7604C32.108 35.9656 35.3717 34.0819 37.8778 31.4639L38.9368 33.3024L45.2533 44.2776C45.4744 44.6622 45.134 45.1264 44.7009 45.0311V45.0311Z" fill="#FD646F"/>
<path d="M44.7008 45.0309L39.1373 43.8065C38.879 43.7503 38.6206 43.8994 38.541 44.1506L39.1398 42.2898C39.2206 42.0388 39.4792 41.8906 39.7367 41.9478L44.5242 43.012L45.2533 44.2783C45.4749 44.6622 45.1338 45.1269 44.7008 45.0309Z" fill="#FC4755"/>
<path d="M21.6776 36.6053L14.1132 49.7437C13.8916 50.1287 13.3181 50.0666 13.1839 49.6431L11.4591 44.1981C11.3793 43.9463 11.1205 43.7969 10.8626 43.8536L5.29878 45.0782C4.86558 45.1735 4.52522 44.7092 4.74651 44.3248L11.7819 32.1021C14.4084 34.5921 17.9513 35.9918 21.6776 36.6053Z" fill="#FD646F"/>
<path d="M12.7776 33.9203L6.50848 44.8115L5.29917 45.0779C4.86598 45.1734 4.52551 44.7091 4.7468 44.3246L10.7353 33.9203L12.3548 31.0995C12.7908 31.5123 13.2463 31.9046 13.7211 32.2734L12.7776 33.9203Z" fill="#FC4755"/>
<path d="M14.8511 48.461L14.1127 49.7437C13.8911 50.1287 13.3182 50.0674 13.1834 49.6436L11.4586 44.1985C11.379 43.9463 11.1206 43.7972 10.8622 43.8534L12.7698 43.4338C13.0278 43.377 13.2865 43.5264 13.3662 43.7781L14.8511 48.461Z" fill="#FC4755"/>
<path d="M11.9521 31.7911L16.9273 34.0347L21.6776 36.6054L20.4038 38.8163C16.8521 38.0952 13.5567 36.442 10.8331 34.0072C10.8005 33.9786 10.7678 33.9499 10.7351 33.9201L11.9521 31.7911Z" fill="#FC4755"/>
<path d="M38.9366 33.3027L37.8776 31.4641L32.2739 33.9375L28.4397 36.7607L28.8706 37.5089L29.9289 39.3469L35.8864 49.6965C36.108 50.0815 36.6815 50.0194 36.8157 49.596L37.1951 48.3983L31.2736 38.0841C34.1402 37.0865 36.7498 35.4636 38.9366 33.3027V33.3027Z" fill="#FC4755"/>
<path d="M43.5336 18.5898C43.5336 23.5862 41.5678 28.1238 38.3684 31.4641C35.8623 34.0821 32.5986 35.9658 28.9304 36.7606C27.6631 37.0351 26.3488 37.1795 24.9998 37.1795C23.9704 37.1795 22.9615 37.0955 21.9781 36.9337C18.4427 36.3519 15.2432 34.7663 12.6821 32.4781C12.5432 32.3552 12.4074 32.2303 12.2726 32.1022C11.7946 31.6495 11.3412 31.1711 10.9123 30.6703C10.5018 30.1889 10.1158 29.6859 9.7553 29.1636C8.67282 27.5975 7.8242 25.8551 7.25948 23.9889C6.74377 22.2804 6.466 20.4684 6.466 18.5899C6.466 8.32331 14.7643 0 24.9998 0C26.8717 0 28.6792 0.278584 30.3815 0.796946C32.2432 1.36136 33.9792 2.21254 35.5417 3.2993C36.0625 3.66091 36.5639 4.04805 37.0428 4.46082C37.6842 5.00981 38.2867 5.60293 38.8473 6.23383C41.7628 9.51873 43.5336 13.8473 43.5336 18.5898Z" fill="#FAA515"/>
<path d="M24.9998 31.9047C32.3313 31.9047 38.2746 25.9434 38.2746 18.5897C38.2746 11.2361 32.3313 5.27478 24.9998 5.27478C17.6683 5.27478 11.725 11.2361 11.725 18.5897C11.725 25.9434 17.6683 31.9047 24.9998 31.9047Z" fill="#FAD207"/>
<path d="M38.2744 18.5898C38.2744 25.9431 32.331 31.9045 24.9998 31.9045C17.6686 31.9045 11.7252 25.9431 11.7252 18.5898C11.7252 18.0345 11.7589 17.4876 11.8252 16.9509C12.6299 23.532 18.222 28.6267 24.9998 28.6267C31.7775 28.6267 37.3696 23.532 38.1743 16.9509C38.2407 17.4877 38.2744 18.0346 38.2744 18.5898V18.5898Z" fill="#FAA515"/>
<path fill-rule="evenodd" clip-rule="evenodd" d="M24.9998 5.27515C17.6686 5.27515 11.7252 11.2365 11.7252 18.5899C11.7252 25.9433 17.6686 31.9046 24.9998 31.9046C32.331 31.9046 38.2744 25.9433 38.2744 18.5899C38.2744 11.2365 32.331 5.27515 24.9998 5.27515V5.27515ZM24.9998 30.3681C18.5243 30.3681 13.257 25.0848 13.257 18.5899C13.257 12.0949 18.5243 6.81165 24.9998 6.81165C31.4752 6.81165 36.7426 12.0949 36.7426 18.5899C36.7426 25.0848 31.4752 30.3681 24.9998 30.3681Z" fill="#FAF063"/>
<path d="M25.4584 11.2268L27.282 14.9519C27.3562 15.1036 27.5007 15.2088 27.668 15.2328L31.7662 15.8216C32.1856 15.8819 32.3534 16.3973 32.0498 16.6928L29.0774 19.5872C28.9567 19.7047 28.9017 19.8742 28.9304 20.0401L29.6387 24.1326C29.7111 24.5506 29.2715 24.8695 28.8965 24.6708L25.2389 22.7326C25.0894 22.6534 24.9102 22.6534 24.7607 22.7326L21.1031 24.6708C20.7281 24.8696 20.2885 24.5507 20.3609 24.1326L21.0692 20.0401C21.0979 19.8742 21.043 19.7047 20.9222 19.5872L17.9498 16.6928C17.6462 16.3972 17.814 15.8819 18.2334 15.8216L22.3316 15.2328C22.4988 15.2088 22.6433 15.1036 22.7176 14.9519L24.5412 11.2268C24.728 10.8453 25.2716 10.8453 25.4584 11.2268V11.2268Z" fill="#FAA515"/>
</g>
<defs>
<filter id="filter0_d" x="-4" y="0" width="58" height="58" filterUnits="userSpaceOnUse" color-interpolation-filters="sRGB">
<feFlood flood-opacity="0" result="BackgroundImageFix"/>
<feColorMatrix in="SourceAlpha" type="matrix" values="0 0 0 0 0 0 0 0 0 0 0 0 0 0 0 0 0 0 127 0"/>
<feOffset dy="4"/>
<feGaussianBlur stdDeviation="2"/>
<feColorMatrix type="matrix" values="0 0 0 0 0 0 0 0 0 0 0 0 0 0 0 0 0 0 0.2 0"/>
<feBlend mode="normal" in2="BackgroundImageFix" result="effect1_dropShadow"/>
<feBlend mode="normal" in="SourceGraphic" in2="effect1_dropShadow" result="shape"/>
</filter>
</defs>
</svg>
